<?xml version="1.0" standalone="no"?><!DOCTYPE svg PUBLIC "-//W3C//DTD SVG 1.1//EN" "http://www.w3.org/Graphics/SVG/1.1/DTD/svg11.dtd"><svg t="1503927553371" class="icon" style="" viewBox="0 0 1024 1024" version="1.1" xmlns="http://www.w3.org/2000/svg" p-id="2346" id="mx_n_1503927553375" xmlns:xlink="http://www.w3.org/1999/xlink" width="64" height="64"><defs><style type="text/css"></style></defs><path d="M512 64.5C264.8 64.5 64.5 264.9 64.5 512S264.8 959.5 512 959.5c247.1 0 447.5-200.4 447.5-447.5S759.1 64.5 512 64.5z" fill="#F2A141" p-id="2347"></path><path d="M405.2 592.7C417 579.4 568.6 494 568.6 494l-197.9-26.6 264.7-3.1s9.4 7.8 0 18.8-150 107.3-150 107.3l159.9 12.8-4.9-28.3 128.3-124.7-177.3-25.7L512 273l-79.3 151.4-177.3 25.7 128.3 124.7L353.4 751 512 667.8 670.6 751l-24.9-144.6L405.2 617s-11.8-11 0-24.3z" fill="#FFFFFF" p-id="2348"></path></svg>