<?xml version="1.0" standalone="no"?><!DOCTYPE svg PUBLIC "-//W3C//DTD SVG 1.1//EN" "http://www.w3.org/Graphics/SVG/1.1/DTD/svg11.dtd"><svg t="1503927695100" class="icon" style="" viewBox="0 0 1024 1024" version="1.1" xmlns="http://www.w3.org/2000/svg" p-id="3066" xmlns:xlink="http://www.w3.org/1999/xlink" width="64" height="64"><defs><style type="text/css"></style></defs><path d="M512 512m-512 0a512 512 0 1 0 1024 0 512 512 0 1 0-1024 0Z" fill="#F45935" p-id="3067"></path><path d="M467.069156 614.923378m-11.377778 0a11.377778 11.377778 0 1 0 22.755555 0 11.377778 11.377778 0 1 0-22.755555 0Z" fill="#FFFFFF" p-id="3068"></path><path d="M443.175822 495.104c-86.880711 4.551111-156.353422 60.3136-152.826311 127.635911s78.449778 115.518578 165.319111 110.967467c86.880711-4.539733 156.353422-60.3136 152.814934-127.635911-3.515733-67.322311-78.4384-115.529956-165.307734-110.967467z m10.717867 204.515556c-70.007467 3.663644-127.055644-33.041067-129.444978-78.665956-2.389333-45.636267 50.505956-88.098133 120.513422-91.773156 70.007467-3.663644 127.067022 33.041067 129.444978 78.665956 2.389333 45.636267-50.517333 88.098133-120.513422 91.773156z" fill="#FFFFFF" p-id="3069"></path><path d="M414.691778 671.193165a23.688533 30.025956 87.002 1 0-2.477872-47.312224 23.688533 30.025956 87.002 1 0 2.477872 47.312224Z" fill="#FFFFFF" p-id="3070"></path><path d="M609.28 367.263289c1.592889-0.489244 4.949333-1.342578 9.6256-2.218667 15.997156-3.003733 32.813511-3.470222 48.014222 0.1024 30.754133 7.236267 49.664 29.457067 52.929422 75.639467a17.078044 17.078044 0 0 0 34.065067-2.400711c-4.323556-61.098667-33.871644-95.800889-79.166578-106.461867-20.514133-4.824178-41.858844-4.243911-62.134044-0.432355-6.018844 1.137778-10.604089 2.298311-13.368889 3.140266a17.066667 17.066667 0 0 0 10.0352 32.631467z" fill="#FFFFFF" p-id="3071"></path><path d="M705.774933 256.944356c-35.999289-9.739378-73.819022-9.841778-109.272177-4.243912-8.772267 1.388089-15.314489 2.798933-19.114667 3.800178a17.066667 17.066667 0 1 0 8.715378 32.995556c0.568889-0.147911 1.877333-0.466489 3.868444-0.898845 3.447467-0.739556 7.418311-1.490489 11.867022-2.195911 31.084089-4.9152 64.352711-4.835556 95.015823 3.470222 64.193422 17.373867 103.310222 66.798933 106.723555 162.372267a17.066667 17.066667 0 0 0 34.110578-1.206044c-3.948089-110.500978-53.270756-172.805689-131.913956-194.093511zM758.158222 657.931378c45.4656-79.496533 3.584-138.4448-69.006222-161.109334a99.612444 99.612444 0 0 1-6.098489-2.082133c6.530844-24.735289 6.462578-48.184889-5.666133-67.2768-18.306844-28.808533-57.912889-36.192711-119.387022-20.764444-2.275556 0.568889-4.608 1.183289-7.099734 1.8432-10.979556 2.946844-17.737956 4.778667-22.004622 5.905066 4.994844-21.8112 3.8912-45.943467-6.2464-63.908977-15.314489-27.215644-46.876444-35.4304-90.817422-21.947734-106.621156 32.733867-254.725689 194.7648-242.5856 298.575645 11.684978 99.931022 115.985067 153.486222 236.396089 161.268622 130.901333 8.476444 276.2752-32.142222 332.515555-130.503111z m-330.308266 96.4608c-105.847467-6.849422-195.549867-52.895289-204.6976-131.163022-9.910044-84.707556 126.1568-233.5744 218.692266-261.984712 29.980444-9.204622 44.612267-5.393067 51.063467 6.052978 5.620622 9.978311 6.018844 27.329422 2.013867 42.325334-5.984711 22.380089 1.752178 39.594667 23.301688 40.482133 5.723022 0.238933 11.821511-0.728178 20.1728-2.810311 4.334933-1.069511 21.0944-5.711644 21.344712-5.779911 2.321067-0.625778 4.471467-1.183289 6.542222-1.706667 48.8448-12.253867 73.648356-7.623111 82.284089 5.973333 6.178133 9.716622 5.666133 26.294044 0.364089 44.179911-1.206044 4.073244-1.4336 4.9152-1.695289 7.600356-0.512 5.085867 0.466489 10.1376 3.333689 14.768356 4.892444 7.8848 13.300622 12.344889 28.398933 17.055288 54.5792 17.043911 81.760711 55.284622 49.550222 111.604623-47.889067 83.7632-181.486933 121.093689-300.669155 113.402311z" fill="#FFFFFF" p-id="3072"></path></svg>