<?xml version="1.0" standalone="no"?><!DOCTYPE svg PUBLIC "-//W3C//DTD SVG 1.1//EN" "http://www.w3.org/Graphics/SVG/1.1/DTD/svg11.dtd"><svg t="1509981160008" class="icon" style="" viewBox="0 0 1024 1024" version="1.1" xmlns="http://www.w3.org/2000/svg" p-id="542" xmlns:xlink="http://www.w3.org/1999/xlink" width="200" height="200"><defs><style type="text/css"></style></defs><path d="M848.5 671.9h-704c-6.6 0-12-5.6-12-12.4V206.7c0-6.8 5.4-12.4 12-12.4h704c6.6 0 12 5.6 12 12.4v452.8c0 6.8-5.4 12.4-12 12.4z" fill="#FBE9E7" p-id="543"></path><path d="M848.5 691.9h-704c-17.6 0-32-14.5-32-32.4V206.7c0-17.8 14.4-32.4 32-32.4h704c17.6 0 32 14.5 32 32.4v452.8c0 17.8-14.3 32.4-32 32.4z m-696-40h688V214.3h-688v437.6z" fill="#FF8A65" p-id="544"></path><path d="M265.6 371.6c0-36.1 29.3-65.4 65.4-65.4s65.4 29.3 65.4 65.4v0.1c0 36.1-29.3 65.4-65.4 65.4s-65.4-29.4-65.4-65.5z m179.9 155.9s-31.1-65.4-114.5-65.4-114.5 65.4-114.5 65.4v32.7h228.9l0.1-32.7zM753.7 369.3h-257v-63.8h257v63.8zM688.8 404H496.6v63.1h192.2V404z m-4.4 98H496.6v63.1h187.8V502z" fill="#FF8A65" p-id="545"></path><path d="M531.7 659.7c0 104.9 84.9 189.9 189.8 190s189.9-84.9 190-189.8v-0.1c0-104.9-84.9-189.9-189.8-190s-189.9 84.9-190 189.8v0.1z" fill="#F44336" p-id="546"></path><path d="M719.2 637.7l21.3 13.4c-7.9 10.5-15.9 20.6-23.9 30.3l20.8 13.7-17.7 22.1c-10.6-8.4-20.8-16.3-30.4-23.5v74.6h-29.6v-81.5c-7.8 7.9-16.1 15.9-24.9 24.1-2.8-11.4-6-22.1-9.6-32.1 20.4-16.5 37.8-34 51.9-52.6h-47.9v-27.7h38.2c-6-9-13.2-18.9-21.6-29.6l24.5-13.8c9.6 11.4 18.1 22.1 25.3 32.4l-18.7 11.1h34.7v25.5c-6.5 9.8-13.9 19.8-22.4 30.1v10c3 1.8 5.9 3.6 8.7 5.4 7.5-10.6 14.6-21.2 21.3-31.9z m70.5-15.5c18.6 16.2 35.4 31.7 50.5 46.6l-23.2 23c-11.9-13.4-24.5-26.8-37.7-40.2v116.9h-30.9v-210h30.9v72.9l10.4-9.2z" fill="#FFFFFF" p-id="547"></path><path d="M781.7 770.9h-35.9V556h35.9v69.9l7.9-7 1.7 1.4c18.5 16.1 35.6 31.9 50.6 46.7l1.8 1.8-26.9 26.6-1.8-2c-10.5-11.9-21.7-23.9-33.3-35.8v113.3z m-30.8-5h25.9V645.4l4.3 4.4c12.5 12.7 24.6 25.6 36 38.4l19.5-19.4c-14-13.8-29.8-28.4-46.9-43.3l-13 11.5v-76h-25.9v204.9z m-59.2 5h-34.6v-78c-6.6 6.5-13.5 13.2-20.7 19.9l-3.1 2.9-1-4.1c-2.8-11.2-6-22-9.5-31.9l-0.6-1.7 1.4-1.1c18.7-15.1 35-31.2 48.4-48.1h-45.3V596h36c-5.4-7.9-11.7-16.4-18.9-25.6l-1.8-2.3 28.8-16.3 1.3 1.6c9.7 11.4 18.2 22.3 25.5 32.5l1.6 2.2L686 596h28v28.8l-0.4 0.6c-6.3 9.6-13.7 19.6-21.9 29.6v7.7c1.9 1.1 3.7 2.3 5.6 3.4 6.9-9.9 13.6-19.9 19.8-29.9l1.3-2.1 25.7 16.2-1.6 2.2c-7.3 9.7-14.8 19.2-22.2 28.3l20.7 13.7-21 26.3-2-1.5c-9.1-7.2-18-14.1-26.4-20.5v72.1z m-29.6-5h24.6v-77.1l4 3c9 6.8 18.6 14.2 28.5 22l14.4-18.1-20.8-13.7 1.8-2.1c7.5-9 14.9-18.4 22.2-28.1L720 641.2c-6.4 10-13.1 20-20 29.9l-1.4 2-2-1.3c-2.8-1.8-5.7-3.6-8.6-5.4l-1.2-0.7v-12.3l0.6-0.7c8.2-10 15.5-19.8 21.8-29.3V601h-77.4v22.7h50.5l-3.1 4c-13.9 18.3-31.1 35.7-51 51.9 2.9 8.4 5.6 17.3 8 26.6 7.6-7.1 14.9-14.2 21.8-21.1l4.3-4.3v85.1z m-12.6-196.2c7.6 9.9 14.3 19.1 19.9 27.5l1.4 2 21.1-12.5c-6.5-9-14-18.5-22.3-28.4l-20.1 11.4z" fill="#FFFFFF" p-id="548"></path></svg>